<svg id="Capa_1" enable-background="new 0 0 512 512" height="512" viewBox="0 0 512 512" width="512" xmlns="http://www.w3.org/2000/svg" xmlns:xlink="http://www.w3.org/1999/xlink"><linearGradient id="SVGID_1_" gradientUnits="userSpaceOnUse" x1="340.902" x2="378.755" y1="456.806" y2="456.806"><stop offset="0" stop-color="#43386b"/><stop offset="1" stop-color="#7662bd"/></linearGradient><linearGradient id="SVGID_2_" gradientUnits="userSpaceOnUse" x1="377.716" x2="352.077" y1="346.709" y2="302.3"><stop offset="0" stop-color="#d5c9f1"/><stop offset="1" stop-color="#f2effa"/></linearGradient><linearGradient id="SVGID_3_" gradientUnits="userSpaceOnUse" x1="277.076" x2="362.196" y1="373.457" y2="373.457"><stop offset="0" stop-color="#d5c9f1"/><stop offset="1" stop-color="#e7e3f3"/></linearGradient><g><g><path d="m402.234 269.114-312.707 180.542c-7.19 4.151-16.179-1.038-16.179-9.341v-227.69c0-12.633 6.74-24.306 17.68-30.622l312.707-180.542c7.191-4.152 16.179 1.038 16.179 9.341v227.69c0 12.633-6.739 24.306-17.68 30.622z" fill="#e9e5f6"/><g fill="#7662bd"><path d="m121.974 368.808-23.014 13.287v-176.438l23.014-13.287z"/><path d="m258.138 256.312-23.014 13.287v-142.557l23.014-13.287z"/><path d="m146.905 320.533-11.507 6.643v-142.557l11.507-6.643z"/><path d="m283.069 241.918-11.506 6.644v-142.557l11.506-6.644z"/><path d="m171.837 306.138-11.507 6.644v-142.557l11.507-6.643z"/><path d="m196.768 291.744-11.507 6.644v-142.557l11.507-6.644z"/><path d="m221.7 277.35-11.507 6.643v-142.556l11.507-6.644z"/><path d="m394.302 211.579-23.014 13.287v-176.438l23.014-13.287z"/><path d="m308.001 227.524-11.507 6.643v-142.556l11.507-6.644z"/><path d="m332.932 213.13-11.507 6.643v-142.557l11.507-6.643z"/><path d="m357.864 198.736-11.507 6.643v-142.557l11.507-6.643z"/></g></g><path d="m73.348 298.388 346.566-200.09v19.819l-346.566 200.09z" fill="#ff4757" opacity=".5"/><path d="m73.348 318.207 203.968 13.766 93.972-54.255 48.626-159.601v-19.819l-346.566 200.09z" fill="#ff4757" opacity=".1"/><g><path d="m346.449 441.156-22.317-12.885v60.751c0 4.665 2.489 8.976 6.529 11.308l15.788 9.116c5.954 3.438 13.298 3.403 19.22-.09l60.461-35.664c3.981-2.348 6.424-6.625 6.424-11.247v-60.832l-66.885 39.453c-5.922 3.493-13.265 3.527-19.22.09z" fill="url(#SVGID_1_)"/><path d="m410.803 285.256-57.272-33.066-76.456 44.146 85.121 154.242 76.456-44.146v-67.966c0-20.507-12.468-44.33-27.849-53.21z" fill="url(#SVGID_2_)"/><path d="m277.076 296.335v58.389l41.329 23.861v46.708l43.792 25.283v-67.966c0-20.508-12.469-44.331-27.849-53.211z" fill="url(#SVGID_3_)"/><path d="m310.08 296.335 47.784-27.587 33.321 19.238-47.784 27.587z" fill="#c5baeb"/></g></g></svg>